<svg width="512" height="512" xmlns="http://www.w3.org/2000/svg">

 <g>
  <title>background</title>
  <rect fill="none" id="canvas_background" height="402" width="582" y="-1" x="-1"/>
 </g>
 <g>
  <title>Layer 1</title>
  <polygon fill="#b9b9b9" id="svg_1" points="335.188,154.188 256,233.375 176.812,154.188 154.188,176.812 233.375,256 154.188,335.188 176.812,357.812   256,278.625 335.188,357.812 357.812,335.188 278.625,256 357.812,176.812 "/>
  <path fill="#b9b9b9" id="svg_2" d="m256,0c-141.391,0 -256,114.609 -256,256s114.609,256 256,256s256,-114.609 256,-256s-114.609,-256 -256,-256zm0,472c-119.297,0 -216,-96.703 -216,-216s96.703,-216 216,-216s216,96.703 216,216s-96.703,216 -216,216z"/>
 </g>
</svg>
