<svg width="1000" height="1000" xmlns="http://www.w3.org/2000/svg">
 <metadata>Svg Vector Icons : http://www.onlinewebfonts.com/icon</metadata>

 <g>
  <title>background</title>
  <rect fill="none" id="canvas_background" height="402" width="582" y="-1" x="-1"/>
 </g>
 <g>
  <title>Layer 1</title>
  <g id="svg_1">
   <g id="svg_2" transform="translate(0,511) scale(0.10000000149011612,-0.10000000149011612) ">
    <path fill="#b9b9b9" id="svg_3" d="m1252.7,4962.6l-43.1,-47.4l0,-4798.1c0,-4692.5 0,-4798.1 40.9,-4847.6l40.9,-51.7l3671.3,-6.5c2628.5,-4.3 3686.4,2.1 3727.3,19.4c30.2,12.9 66.8,49.6 79.7,79.7c17.2,40.9 23.7,1053.6 19.4,3563.6l-6.5,3507.5l-1314.2,1314.2l-1314.2,1314.3l-2428.2,0l-2428.1,0l-45.2,-47.4zm4675.2,-1460.8c0,-853.2 6.5,-1219.5 23.7,-1258.2c15.1,-30.2 53.9,-64.6 90.5,-77.6c40.9,-12.9 476.2,-21.5 1245.3,-21.5l1182.8,0l0,-3307.2l0,-3307.2l-3479.5,0l-3479.5,0l0,4589.2l0,4589.1l2208.4,0l2208.4,0l0,-1206.6l-0.1,0zm1335.8,-32.3l1001.8,-1001.9l-1008.2,0l-1006.2,0l0,1001.9c0,551.6 2.1,1001.8 6.5,1001.8c2.1,0.1 454.6,-450.2 1006.1,-1001.8z"/>
    <path fill="#b9b9b9" id="svg_4" d="m3213.3,2217.8c-362,-94.8 -700.2,-370.6 -857.5,-700.2c-109.9,-232.7 -142.2,-370.6 -140,-622.7c2.1,-344.7 116.3,-618.3 370.6,-889.8c426.6,-452.5 1103.1,-547.3 1639.6,-230.5c168,99.1 364.1,290.9 463.2,452.4c92.6,150.8 174.5,400.7 193.9,581.7c10.8,125 8.6,148.7 -32.3,200.4l-45.2,58.2l-549.6,0l-547.2,0l0,536.5c0,508.5 -2.2,538.6 -45.2,592.5c-40.9,51.7 -58.2,56 -187.4,53.9c-79.8,-0.1 -198.3,-15.2 -262.9,-32.4zm202.5,-1372.5c10.8,-21.5 43.1,-49.6 71.1,-60.3c28,-10.8 280.1,-19.4 560.2,-19.4l506.3,0l-12.9,-53.9c-127.1,-502 -517.1,-818.7 -1004,-812.2c-299.5,2.2 -525.7,99.1 -734.7,321c-213.3,224.1 -288.7,435.2 -273.6,758.4c8.6,172.4 21.5,232.7 77.6,353.3c118.5,260.7 396.4,493.4 670.1,564.5l99.1,23.7l10.8,-517.1c6.3,-286.5 19.2,-536.4 30,-558z"/>
    <path fill="#b9b9b9" id="svg_5" d="m3851,2207c-28,-43.1 -34.5,-116.3 -34.5,-486.9c0,-409.4 2.2,-439.5 43.1,-480.5c40.9,-40.9 66.8,-43.1 499.9,-38.8l454.6,6.5l40.9,56c38.8,51.7 40.9,71.1 19.4,204.7c-45.2,299.5 -243.5,568.8 -512.8,702.4c-109.9,53.9 -174.5,68.9 -305.9,77.5c-157.3,8.6 -170.2,6.5 -204.7,-40.9zm424.4,-385.7c97,-60.3 230.5,-232.7 230.5,-295.2c0,-21.5 -49.6,-28 -193.9,-28l-193.9,0l0,193.9c0.1,222 4.4,226.3 157.3,129.3z"/>
    <path fill="#b9b9b9" id="svg_6" d="m5861.2,1608l-51.7,-40.9l-6.5,-1279.8c-4.3,-1273.3 -4.3,-1281.9 38.8,-1337.9c58.2,-73.3 168,-79.7 228.4,-12.9c38.8,43.1 40.9,99.1 47.4,1228.1l4.3,1182.8l150.8,0l150.8,0l0,-1180.7l0,-1182.8l49.6,-45.2c64.6,-62.5 133.6,-60.3 198.2,6.5l53.9,51.7l0,1269c0,1251.8 0,1271.2 -45.2,1327.2l-43.1,56l-364.1,0c-323.3,-0.1 -366.4,-4.5 -411.6,-41.1z"/>
    <path fill="#b9b9b9" id="svg_7" d="m7123.7,1019.8c-99.1,-51.7 -97,-40.9 -97,-1055.7l0,-967.4l53.9,-51.7c62.5,-64.6 146.5,-69 204.7,-10.8c40.9,40.9 43.1,71.1 43.1,915.7l0,872.6l161.6,0l161.6,0l0,-879c0,-825.2 2.2,-883.3 38.8,-915.7c40.9,-36.6 146.5,-47.4 189.6,-19.4c68.9,45.3 73.3,114.2 73.3,1057.9c0,519.2 -6.5,963.1 -12.9,982.5c-30.2,77.6 -122.8,97 -454.6,97c-189.7,-0.1 -336.2,-10.9 -362.1,-26z"/>
    <path fill="#b9b9b9" id="svg_8" d="m2192,-1757.3c-66.8,-53.9 -73.3,-142.2 -15.1,-215.4l40.9,-51.7l2660.8,0c2585.4,0 2660.8,2.1 2706.1,40.9c66.8,60.3 60.3,170.2 -10.8,226.2c-58.2,45.2 -60.3,45.2 -2691,45.2c-2630.5,0 -2632.7,0 -2690.9,-45.2z"/>
    <path fill="#b9b9b9" id="svg_9" d="m2176.9,-2677.3c-60.3,-49.5 -64.6,-157.3 -8.6,-219.8c38.8,-43.1 60.3,-43.1 2716.8,-43.1l2678.1,0l43.1,56c58.2,75.4 56,127.1 -8.6,191.8l-51.7,53.9l-2658.7,0c-2553.1,0 -2663,-2.2 -2710.4,-38.8z"/>
    <path fill="#b9b9b9" id="svg_10" d="m2168.3,-3608c-56,-62.5 -51.7,-170.2 8.6,-219.8c47.4,-36.6 157.3,-38.8 2710.4,-38.8l2658.7,0l51.7,53.9c64.6,64.6 66.8,116.3 8.6,191.8l-43.1,56l-2678,0c-2656.6,-0.1 -2678.1,-0.1 -2716.9,-43.1z"/>
   </g>
  </g>
 </g>
</svg>